<?xml version="1.0" encoding="utf-8"?>
<!-- Generator: Adobe Illustrator 24.3.0, SVG Export Plug-In . SVG Version: 6.00 Build 0)  -->
<svg version="1.1" id="Layer_1" xmlns="http://www.w3.org/2000/svg" xmlns:xlink="http://www.w3.org/1999/xlink" x="0px" y="0px"
	 viewBox="0 0 40 40" style="enable-background:new 0 0 40 40;" xml:space="preserve">
<style type="text/css">
	.st0{fill:#999999;}
</style>
<path class="st0" d="M36.7,7.5h-3.8V3.2c0-0.7-0.6-1.1-1.1-1.1c-0.6,0-1.3,0.5-1.3,1.1v4.3H9.7V3.2c0-0.7-0.6-1.1-1.1-1.1
	S7.3,2.5,7.3,3.2v4.3H3.4c-0.7,0-1.1,0.5-1.1,1.1v28.2c0,0.7,0.6,1.1,1.1,1.1h33.2c0.7,0,1.1-0.6,1.1-1.1V8.6
	C37.8,7.9,37.3,7.5,36.7,7.5z M35.5,35.7H4.6v-18h30.8V35.7z M35.5,15.3H4.6V9.8h2.7v1.6c0,0.6,0.6,1.1,1.2,1.1s1.1-0.6,1.1-1.1V9.8
	h20.7v1.6c0,0.7,0.6,1.1,1.1,1.1s1.1-0.6,1.1-1.1V9.8h2.7L35.5,15.3L35.5,15.3z M8.6,24.2v-2.1c0-0.7,0.7-1.4,1.4-1.4h2.1
	c0.7,0,1.4,0.7,1.4,1.4v2.1c0,0.7-0.7,1.4-1.4,1.4H10C9.2,25.5,8.6,25,8.6,24.2z M17.6,24.2v-2.1c0-0.7,0.7-1.4,1.4-1.4h2.1
	c0.7,0,1.4,0.7,1.4,1.4v2.1c0,0.7-0.7,1.4-1.4,1.4H19C18.3,25.5,17.6,25,17.6,24.2z M26.7,24.2v-2.1c0-0.7,0.7-1.4,1.4-1.4h2.1
	c0.7,0,1.4,0.7,1.4,1.4v2.1c0,0.7-0.7,1.4-1.4,1.4h-2.1C27.3,25.5,26.7,25,26.7,24.2z M8.6,31.4v-2.1c0-0.7,0.7-1.4,1.4-1.4h2.1
	c0.7,0,1.4,0.7,1.4,1.4v2.1c0,0.7-0.7,1.4-1.4,1.4H10C9.2,32.7,8.6,32.1,8.6,31.4z M17.6,31.4v-2.1c0-0.7,0.7-1.4,1.4-1.4h2.1
	c0.7,0,1.4,0.7,1.4,1.4v2.1c0,0.7-0.7,1.4-1.4,1.4H19C18.3,32.7,17.6,32.1,17.6,31.4z M26.7,31.4v-2.1c0-0.7,0.7-1.4,1.4-1.4h2.1
	c0.7,0,1.4,0.7,1.4,1.4v2.1c0,0.7-0.7,1.4-1.4,1.4h-2.1C27.3,32.7,26.7,32.1,26.7,31.4z"/>
</svg>
