<?xml version="1.0" encoding="utf-8"?>
<!-- Generator: Adobe Illustrator 24.3.0, SVG Export Plug-In . SVG Version: 6.00 Build 0)  -->
<svg version="1.1" id="Layer_1" xmlns="http://www.w3.org/2000/svg" xmlns:xlink="http://www.w3.org/1999/xlink" x="0px" y="0px"
	 viewBox="0 0 40 40" style="enable-background:new 0 0 40 40;" xml:space="preserve">
<style type="text/css">
	.st0{fill:#999999;}
</style>
<g>
	<path class="st0" d="M39.5,21.2c-0.1,0.2-0.1,0.4-0.2,0.7c-0.5,1.6-1.9,2.6-3.6,2.6c-1.6,0-3.3,0-4.9,0c-0.1,0-0.2,0-0.3,0
		c0,0.1,0,0.2,0,0.3c0,2,0,4.1,0,6.1c0,0.5-0.2,0.7-0.6,0.8c-0.3,0.1-0.6,0-0.8-0.2c-0.9-0.8-1.7-1.6-2.6-2.4
		c-1.4-1.3-2.8-2.5-4.1-3.8c-0.8-0.7-1.3-0.8-2.4-0.7c0,0.1,0,0.2,0,0.3c0,1.6,0,3.2,0,4.8c0,1.4-1,2.4-2.4,2.4c-1.5,0-3.1,0-4.6,0
		c-0.3,0-0.5,0.1-0.8,0.3c-1.4,1.3-2.9,2.6-4.4,3.9c-0.1,0.1-0.3,0.2-0.5,0.3c-0.1,0-0.2,0-0.3,0c-0.5-0.2-0.6-0.6-0.6-1
		c0-1.1,0-2.1,0-3.2c0-0.1,0-0.2,0-0.3c-0.1,0-0.2,0-0.3,0c-1.1,0-2.3,0-3.4,0c-0.9,0-1.6-0.4-2-1.2c-0.1-0.2-0.2-0.5-0.3-0.7
		c0-4.2,0-8.4,0-12.6c0,0,0-0.1,0-0.1c0.3-1.2,1.1-1.8,2.3-1.8c1.1,0,2.2,0,3.4,0c0.1,0,0.2,0,0.3,0c0-0.1,0-0.2,0-0.3
		c0-2.6,0-5.3,0-7.9c0-1.7,1.1-3.2,2.8-3.6c0.2,0,0.3-0.1,0.5-0.1c8.8,0,17.6,0,26.3,0c0,0,0.1,0,0.1,0c1.6,0.3,2.6,1.2,3.1,2.8
		c0.1,0.2,0.1,0.3,0.1,0.5C39.5,11.6,39.5,16.4,39.5,21.2z M29,29.3c0-0.2,0-0.2,0-0.3c0-1.6,0-3.2,0-4.9c0-1.1,0-2.1,0-3.2
		c0-0.1,0-0.3,0-0.4c0.1-0.3,0.4-0.5,0.8-0.5c0.3,0,0.6,0.3,0.6,0.7c0,0.7,0,1.3,0,2c0,0.1,0,0.2,0,0.3c0.1,0,0.2,0,0.3,0
		c1.6,0,3.2,0,4.8,0c1.4,0,2.4-0.9,2.4-2.4c0-4.4,0-8.8,0-13.2C38,6,36.9,5,35.6,5c-8.4,0-16.8,0-25.2,0C9.1,5,8,6,8,7.4
		c0,4.4,0,8.8,0,13.2c0,0.2,0,0.3,0,0.5c0.2,1.1,1.1,1.9,2.2,1.9c3.4,0,6.9,0,10.3,0c1.1,0,2,0.3,2.8,1.1c1.2,1.2,2.5,2.3,3.7,3.4
		C27.7,28.1,28.3,28.7,29,29.3z M18.5,24.5c-0.1,0-0.2,0-0.3,0c-2.6,0-5.2,0-7.9,0c-0.3,0-0.5,0-0.8-0.1c-1.8-0.4-3-1.9-3.1-3.7
		c0-1.1,0-2.3,0-3.4c0-0.1,0-0.2,0-0.3c-1.2,0-2.4,0-3.6,0C2.3,17,2,17.3,2,17.9c0,3.9,0,7.8,0,11.7c0,0.6,0.3,0.9,0.9,0.9
		c1.4,0,2.8,0,4.3,0c0.5,0,0.8,0.3,0.8,0.8c0,0.8,0,1.6,0,2.4c0,0.1,0,0.1,0,0.3c0.1-0.1,0.1-0.1,0.2-0.2c1-0.9,2.1-1.8,3.1-2.7
		c0.5-0.4,1-0.6,1.7-0.6c1.6,0,3.1,0,4.7,0c0.6,0,0.9-0.3,0.9-0.9c0-1.6,0-3.2,0-4.8C18.5,24.7,18.5,24.6,18.5,24.5z"/>
	<path class="st0" d="M23.2,11c2.9,0,5.8,0,8.7,0c0.5,0,0.9,0.4,0.8,0.8c0,0.3-0.3,0.6-0.6,0.6c-0.1,0-0.2,0-0.3,0
		c-5.8,0-11.5,0-17.3,0c-0.5,0-0.8-0.2-0.9-0.6c-0.1-0.4,0.2-0.9,0.6-0.9c0.1,0,0.2,0,0.3,0C17.4,11,20.3,11,23.2,11z"/>
	<path class="st0" d="M17.2,17c-0.9,0-1.8,0-2.7,0c-0.5,0-0.8-0.3-0.8-0.7c0-0.4,0.3-0.8,0.8-0.8c1.8,0,3.6,0,5.4,0
		c0.5,0,0.8,0.3,0.8,0.8c0,0.4-0.3,0.7-0.8,0.7C19,17,18.1,17,17.2,17z"/>
	<path class="st0" d="M23.9,17c-0.2,0-0.4,0-0.6,0c-0.4,0-0.7-0.3-0.7-0.7c0-0.4,0.3-0.8,0.7-0.8c0.4,0,0.8,0,1.2,0
		c0.4,0,0.7,0.4,0.7,0.8c0,0.4-0.3,0.7-0.8,0.7C24.3,17,24.1,17,23.9,17z"/>
</g>
<g>
</g>
<g>
</g>
<g>
</g>
<g>
</g>
<g>
</g>
<g>
</g>
<g>
</g>
<g>
</g>
<g>
</g>
<g>
</g>
<g>
</g>
<g>
</g>
<g>
</g>
<g>
</g>
<g>
</g>
</svg>
