<?xml version="1.0" encoding="utf-8"?>
<!-- Generator: Adobe Illustrator 24.3.0, SVG Export Plug-In . SVG Version: 6.00 Build 0)  -->
<svg version="1.1" id="Layer_1" xmlns="http://www.w3.org/2000/svg" xmlns:xlink="http://www.w3.org/1999/xlink" x="0px" y="0px"
	 viewBox="0 0 40 40" style="enable-background:new 0 0 40 40;" xml:space="preserve">
<style type="text/css">
	.st0{fill:#999999;}
</style>
<path class="st0" d="M30.5,12c0-0.8-0.6-1.6-1.4-1.8c-0.2-0.1-0.4-0.1-0.6-0.1l-0.3,0l-0.6,0c-0.8,0-1.6,0-2.3,0l-4.7,0.1
	c-3.1,0-6.3,0.2-9.4,0.4c-0.6,0-1.2,0.5-1.3,1c0,0.1,0,0.3,0,0.4l0,0.3l0,0.6c0,0.8,0.1,1.6,0.1,2.3c0,1.6,0,3.1,0,4.7
	c0,1.6-0.1,3.1-0.2,4.7l-0.3,4.7c0,0.7,0.5,1.4,1.2,1.6c0.2,0.1,0.4,0.1,0.5,0.1l0.3,0l0.6,0c0.8,0,1.6,0,2.3,0
	c1.6,0,3.1-0.1,4.7-0.2c3.1-0.2,6.3-0.5,9.4-0.5c0.4,0,0.9-0.3,1-0.7c0.1-0.4,0-0.8,0.1-1.2c0-0.8,0.1-1.6,0.1-2.3
	c0.1-1.6,0.2-3.1,0.4-4.7c0.2-2.5,0.3-5,0.3-7.4l1.6-2c-0.5,0.2-1.1,0.4-1.6,0.6C30.5,12.5,30.5,12.3,30.5,12z M29.4,29.6
	c-0.1,0.3-0.4,0.6-0.8,0.6c-3.1,0-6.3-0.3-9.4-0.5c-1.6-0.1-3.1-0.2-4.7-0.2c-0.8,0-1.6,0-2.3,0l-0.6,0l-0.4,0
	c-0.1,0-0.1-0.1-0.1-0.1l-0.3-4.7c-0.1-1.6-0.2-3.1-0.2-4.7c0-1.6,0-3.1,0-4.7c0-0.8,0-1.6,0.1-2.3l0-0.6l0-0.3c0-0.1,0-0.1,0-0.2
	c0.1-0.2,0.3-0.3,0.4-0.3c3.1,0.2,6.3,0.3,9.4,0.4l4.7,0.1c0.8,0,1.6,0,2.3,0l0.6,0l0.3,0c0,0.5,0,1,0,1.6c-0.3,0.2-0.7,0.4-1,0.6
	c-1.4,0.9-2.7,1.9-4,3c-1.3,1.1-2.5,2.3-3.6,3.6c-0.4,0.5-0.9,1.1-1.3,1.7c-0.5-0.7-1.1-1.4-1.7-2c-0.7-0.7-1.4-1.4-2.2-2
	C14,18,13.2,17.4,12.3,17c0.4,0.9,0.8,1.8,1.2,2.7c0.4,0.9,0.8,1.7,1.2,2.5l1.2,2.5l1.2,2.4c0.2,0.4,0.5,0.7,0.9,0.8
	c0.9,0.5,2.1,0.1,2.5-0.9l0.1-0.1c0.6-1.2,1.5-2.4,2.4-3.7c0.9-1.2,1.9-2.5,2.9-3.7l2.7-3.3c0.1,1.7,0.1,3.5,0.3,5.2
	c0.1,1.6,0.3,3.1,0.4,4.7c0.1,0.8,0.1,1.6,0.1,2.3l0,0.6C29.4,29.3,29.4,29.5,29.4,29.6z M20,1.1C9.6,1.1,1.1,9.6,1.1,20
	S9.6,38.9,20,38.9c10.4,0,18.9-8.5,18.9-18.9S30.4,1.1,20,1.1z M20,37.1c-9.4,0-17.1-7.7-17.1-17.1S10.6,2.9,20,2.9
	S37.1,10.6,37.1,20S29.4,37.1,20,37.1z"/>
<g>
</g>
<g>
</g>
<g>
</g>
<g>
</g>
<g>
</g>
<g>
</g>
<g>
</g>
<g>
</g>
<g>
</g>
<g>
</g>
<g>
</g>
<g>
</g>
<g>
</g>
<g>
</g>
<g>
</g>
</svg>
