<?xml version="1.0" encoding="utf-8"?>
<!-- Generator: Adobe Illustrator 24.3.0, SVG Export Plug-In . SVG Version: 6.00 Build 0)  -->
<svg version="1.1" id="Layer_1" xmlns="http://www.w3.org/2000/svg" xmlns:xlink="http://www.w3.org/1999/xlink" x="0px" y="0px"
	 viewBox="0 0 40 40" style="enable-background:new 0 0 40 40;" xml:space="preserve">
<style type="text/css">
	.st0{fill-rule:evenodd;clip-rule:evenodd;fill:#999999;}
</style>
<g>
	<path class="st0" d="M7.1,1.4c8.6,0,17.2,0,25.8,0c0.3,0.1,0.4,0.2,0.6,0.4c1.8,1.9,3.7,3.7,5.5,5.6c0.2,0.2,0.4,0.4,0.5,0.7
		c0,0.1,0,0.2,0,0.3c0,0.1-0.1,0.2-0.1,0.3C39.2,8.8,39.1,9,39,9.2c-4,6-7.9,12.1-11.9,18.1c-0.1,0.1-0.1,0.1,0,0.2
		c0.4,0.9,0.6,1.7,0.7,2.7c0.1,1.8-0.3,3.4-1.3,4.9c-1.3,1.9-3,3-5.2,3.4c-0.3,0-0.5,0.1-0.8,0.1c-0.3,0-0.6,0-0.9,0
		c0,0-0.1,0-0.1,0c-0.4-0.1-0.7-0.1-1.1-0.2c-4.9-1.1-7.5-6.4-5.4-10.9c0-0.1,0-0.1,0-0.2C8.9,21.2,4.8,15,0.8,8.8
		C0.7,8.7,0.6,8.5,0.5,8.3c0-0.1,0-0.2,0-0.3c0.1-0.3,0.3-0.5,0.5-0.7c1.8-1.8,3.7-3.7,5.5-5.5C6.6,1.7,6.8,1.5,7.1,1.4z M29.2,9
		c-6.1,0-12.3,0-18.4,0c3.1,4.7,6.1,9.3,9.2,14C23.1,18.3,26.1,13.7,29.2,9z M36.6,7.3C36.6,7.3,36.6,7.3,36.6,7.3
		c-1.4-1.4-2.8-2.8-4.2-4.2c0,0-0.1-0.1-0.2-0.1c-8.2,0-16.4,0-24.6,0c-0.1,0-0.2,0-0.2,0.1c-1.3,1.3-2.7,2.7-4,4
		c0,0-0.1,0.1-0.1,0.1C14.5,7.3,25.5,7.3,36.6,7.3z M20,36.9c3.4,0,6.1-2.7,6.1-6.1c0-3.4-2.7-6.1-6.1-6.1c-3.4,0-6.1,2.7-6.1,6.1
		C13.9,34.2,16.6,36.9,20,36.9z M21.9,23.2c1.7,0.4,3.1,1.3,4.2,2.7c3.7-5.6,7.4-11.3,11.1-16.9C37.1,9,37,9,37,9
		c-1.9,0-3.7,0-5.6,0c-0.1,0-0.2,0-0.2,0.1c-3.1,4.7-6.1,9.3-9.2,14C21.9,23.1,21.9,23.2,21.9,23.2z M18.1,23.2c0,0,0-0.1-0.1-0.1
		c-3.1-4.7-6.1-9.4-9.2-14C8.8,9,8.8,9,8.7,9C6.8,9,4.9,9,3,9c0,0-0.1,0-0.1,0c3.7,5.6,7.4,11.3,11.1,16.9
		C15.1,24.5,16.5,23.7,18.1,23.2z"/>
	<path class="st0" d="M19.5,29.2c-0.2,0-0.3,0-0.5,0c-0.5,0-0.9-0.4-0.9-0.9c0-0.5,0.4-0.9,0.9-0.9c0.5,0,0.9,0,1.4,0
		c0.5,0,0.9,0.4,0.9,0.9c0,1.9,0,3.8,0,5.6c0,0.5-0.4,0.9-0.9,0.9c-0.5,0-0.9-0.4-0.9-0.9c0-1.5,0-3,0-4.6
		C19.5,29.3,19.5,29.3,19.5,29.2z"/>
</g>
<g>
</g>
<g>
</g>
<g>
</g>
<g>
</g>
<g>
</g>
<g>
</g>
<g>
</g>
<g>
</g>
<g>
</g>
<g>
</g>
<g>
</g>
<g>
</g>
<g>
</g>
<g>
</g>
<g>
</g>
</svg>
