<?xml version="1.0" encoding="utf-8"?>
<!-- Generator: Adobe Illustrator 24.3.0, SVG Export Plug-In . SVG Version: 6.00 Build 0)  -->
<svg version="1.1" id="Layer_1" xmlns="http://www.w3.org/2000/svg" xmlns:xlink="http://www.w3.org/1999/xlink" x="0px" y="0px"
	 viewBox="0 0 40 40" style="enable-background:new 0 0 40 40;" xml:space="preserve">
<style type="text/css">
	.st0{fill:#999999;stroke:#999999;stroke-width:0.4795;stroke-linecap:round;stroke-linejoin:round;stroke-miterlimit:10;}
</style>
<g>
	<path class="st0" d="M28.3,11.9l7.4,2l1.9-7.4l-1.4-0.4L35,10.8c-3.1-5.1-8.6-8.3-15-8.3C10.3,2.3,2.4,10.2,2.4,20
		S10.3,37.6,20,37.6c6.5,0,12.1-3.5,15.2-8.7l-1.4-0.7c-2.8,4.7-8,7.9-13.8,7.9c-8.9,0-16-7.2-16-16S11.1,3.9,20,3.9
		c5.9,0,11.1,3.2,13.9,8l-5.2-1.4L28.3,11.9z"/>
	<polygon class="st0" points="17.7,8 17.7,21.4 26.3,25.5 26.9,24.2 19.2,20.4 19.2,8 	"/>
</g>
</svg>
