<?xml version="1.0" encoding="utf-8"?>
<!-- Generator: Adobe Illustrator 24.3.0, SVG Export Plug-In . SVG Version: 6.00 Build 0)  -->
<svg version="1.1" id="Layer_1" xmlns="http://www.w3.org/2000/svg" xmlns:xlink="http://www.w3.org/1999/xlink" x="0px" y="0px"
	 viewBox="0 0 40 40" style="enable-background:new 0 0 40 40;" xml:space="preserve">
<style type="text/css">
	.st0{fill:#999999;}
	.st1{fill:#999999;stroke:#999999;stroke-width:0.9399;stroke-miterlimit:10;}
</style>
<g>
	<path class="st0" d="M4.8,12.4c0,0-0.1,0-0.1,0c0-0.6,0.1-1.2,0.1-1.8C4.9,9.4,5,8.1,5.6,6.8C5.8,6.1,6.3,5.5,6.9,5
		c0.6-0.5,1.3-0.8,2-1.1c0.9-0.3,1.8-0.5,2.7-0.6l0-2.2l5.6,3.2l-5.8,4.2L11.5,6C10.7,6,10,6,9.4,6c-1.1,0.1-2,0.5-2.6,1.4
		c-0.7,0.9-1,2.1-1.3,3.3c-0.1,0.5-0.3,1.1-0.4,1.6L4.8,12.4z M28.9,24.2c0.1,0.1,0.2,0.1,0.3,0.1c0.1,0,0.1,0,0.2,0s0.2,0,0.2,0
		c0.1,0,0.2-0.1,0.3-0.1c0.8-0.5,2-1.6,2.5-2.1c4.8-4.7,6.8-12.3,6.6-18.9c0-0.2-0.1-0.3-0.3-0.3c-6.7-0.7-7.7-1.6-8.5-2.2
		c-0.1-0.1-0.2-0.1-0.2-0.1c0,0,0,0,0,0c-0.1,0-0.3,0-0.4,0c-0.1,0-0.2,0-0.3,0c-0.1,0-0.2,0-0.3,0c-0.2,0-0.3,0-0.4,0c0,0,0,0,0,0
		c-0.1,0-0.1,0-0.2,0.1c-0.8,0.7-1.7,1.5-8.5,2.2c-0.2,0-0.3,0.2-0.3,0.3c-0.2,6.5,1.8,14.2,6.6,18.9C26.9,22.6,28.1,23.7,28.9,24.2
		z M35.2,14.5 M28.7,22.2c-0.2-0.2-0.5-0.5-0.7-0.6L27.4,21c-0.3-0.2-0.5-0.5-0.7-0.8l-0.1-0.1c-0.1-0.1-0.2-0.2-0.3-0.3l-0.2-0.2
		c-0.2-0.2-0.4-0.5-0.6-0.8l-0.6-1c-0.5-0.7-0.9-1.5-1.2-2.3l-0.3-0.7c-0.4-0.9-0.7-1.7-0.9-2.6L22.3,12c-0.8-2.6-1.1-5.3-1.1-7.7
		c5.2-0.6,6.8-1.3,7.9-2.2l0,0c0.1,0,0.2,0,0.3,0c0.1,0,0.2,0,0.3,0l0,0c1.1,0.8,2.7,1.5,7.9,2.2c0,2.2-0.3,4.8-1,7.2l-0.1,0.3
		c-0.1,0.3-0.2,0.7-0.3,1l-0.7,1.9c-0.3,0.7-0.6,1.3-1,2l-0.2,0.3c-0.2,0.4-0.4,0.7-0.7,1.1l-0.5,0.8c-0.3,0.5-0.7,1-1.1,1.4
		l-0.6,0.6c0,0-0.1,0.1-0.1,0.1c-0.2,0.2-0.5,0.5-0.8,0.7l-1,0.9c-0.2,0.2-0.4,0.2-0.6,0L28.7,22.2z M37.8,25.8
		c0.3-1.2,0.6-2.4,0.9-3.7c-0.1,1.3-0.1,2.5-0.2,3.8c-0.1,1.2-0.2,2.6-0.8,3.9c-0.3,0.6-0.7,1.3-1.3,1.8c-0.6,0.5-1.3,0.8-2,1.1
		c-0.9,0.3-1.8,0.5-2.7,0.6l0,2.2L26,32.3l5.8-4.2l-0.1,2.5c0.8,0,1.5,0,2.1-0.1c1.1-0.1,2-0.5,2.6-1.4C37.2,28.2,37.5,27,37.8,25.8
		z M27.8,26.3c-1.8,4.2-4.4,7.7-7.7,10.4c-0.2,0.2-2.4,1.9-3.9,2.6c-0.1,0.1-0.3,0.1-0.4,0.1c-0.2,0-0.5,0-0.7,0
		c-0.1,0-0.3-0.1-0.4-0.1c-1.5-0.7-3.6-2.4-3.9-2.6c-7.8-6.1-10.3-16-10-23.2c0-0.1,0.1-0.2,0.3-0.2c1.4-0.1,2.7-0.2,3.9-0.4l0.3,0
		c6.6-0.8,7.9-1.7,8.9-2.4c0.1,0,0.2,0,0.2,0l0.7,0l0.5,0l0.5,0l0.7,0c0,0,0.1,0,0.2,0c0.3,0.2,0.7,0.5,1.3,0.8
		c0.1,0.6,0.3,1.2,0.5,1.9c-0.9-0.3-1.6-0.6-2.3-1.1l-0.1,0l-0.3,0l-0.5,0L15,12l-0.3,0l-0.1,0c-1.7,1.1-4.3,1.9-12,2.7l-0.2,0
		l0,0.2c0.1,3.1,1,13.7,9.5,20.5c0.5,0.4,1.2,0.9,1.7,1.3c0.2,0.2,0.3,0.3,0.5,0.3l0,0c0.5,0.3,0.9,0.6,1.2,0.7l0.1,0l0.2,0l0.2,0
		l0.1,0c1.1-0.6,2.7-1.8,3.4-2.4c3.2-2.6,5.7-6,7.4-10.2C26.8,25.6,27.3,26,27.8,26.3z"/>
	<circle class="st0" cx="29.4" cy="9.2" r="3.6"/>
	<path class="st1" d="M24.3,18.3c0-2-0.5-5.5,5.1-5.5c5.1,0,5.3,3.1,5.3,5.1l-5.3,4.4L24.3,18.3z"/>
	<circle class="st0" cx="15.3" cy="22.1" r="4.8"/>
	<g>
		<path class="st0" d="M6.9,31.8c-0.2-1-0.1-2.1,0.1-3.2c0.1-0.5,0.3-1.1,0.5-1.6c0.1-0.3,0.3-0.6,0.6-0.8c0.3-0.2,0.6-0.4,0.9-0.5
			c0.6-0.2,1.3-0.3,1.8-0.2c0.6,0,1.1,0.1,1.6,0.2c1,0.2,2,0.3,2.9,0.3c0.8,0,1.8-0.3,2.8-0.5c0.5-0.1,1.1-0.3,1.7-0.3
			c0.6-0.1,1.4,0.1,1.9,0.5c1.1,0.9,1.4,1.9,1.7,3c0.3,1,0.4,2.1,0.3,3.2c-0.2-1-0.6-1.9-1.1-2.8c-0.5-0.9-1.1-1.7-1.7-2.1
			c-0.5-0.3-1.4-0.1-2.3,0.2c-1,0.3-2,0.7-3.2,0.7c-1.1,0-2.2-0.2-3.2-0.4c-1-0.2-2-0.4-2.7-0.3c-0.2,0-0.3,0.1-0.5,0.2
			c-0.1,0.1-0.3,0.2-0.4,0.4c-0.3,0.3-0.5,0.8-0.7,1.2C7.5,29.8,7.1,30.8,6.9,31.8z"/>
	</g>
</g>
<g>
</g>
<g>
</g>
<g>
</g>
<g>
</g>
<g>
</g>
<g>
</g>
<g>
</g>
<g>
</g>
<g>
</g>
<g>
</g>
<g>
</g>
<g>
</g>
<g>
</g>
<g>
</g>
<g>
</g>
</svg>
